<svg width="41" height="40" viewBox="0 0 41 40" fill="none" xmlns="http://www.w3.org/2000/svg">
<g clip-path="url(#clip0_4944_124424)">
<path d="M16.8157 20.1556L13.5991 23.3789V23.3789C13.3211 23.6591 13.1648 24.0376 13.1641 24.4322V26.0106V26.0106C13.1641 26.8335 13.8312 27.5006 14.6541 27.5006H16.2391V27.5006C16.6346 27.5011 17.014 27.3432 17.2924 27.0622L20.5024 23.8456V23.8456C21.0903 24.0514 21.7079 24.16 22.3307 24.1672V24.1672C25.6063 24.2211 28.3053 21.6095 28.3592 18.334C28.4131 15.0584 25.8015 12.3594 22.5259 12.3055C19.2504 12.2516 16.5514 14.8632 16.4975 18.1388C16.4862 18.8244 16.5939 19.5067 16.8157 20.1556H16.8157Z" stroke="#195AB4" stroke-width="1.5" stroke-linecap="round" stroke-linejoin="round"/>
<path d="M22.334 18.2656V18.2656C22.2962 18.2656 22.2656 18.2962 22.2656 18.334C22.2656 18.3717 22.2962 18.4023 22.334 18.4023C22.3717 18.4023 22.4023 18.3717 22.4023 18.334V18.334C22.4023 18.2962 22.3717 18.2656 22.334 18.2656" stroke="#195AB4" stroke-width="1.5" stroke-linecap="round" stroke-linejoin="round"/>
<path d="M20.6641 35C28.9483 35 35.6641 28.2843 35.6641 20C35.6641 11.7157 28.9483 5 20.6641 5C12.3798 5 5.66406 11.7157 5.66406 20C5.66406 28.2843 12.3798 35 20.6641 35Z" stroke="#195AB4" stroke-width="1.5" stroke-linecap="round" stroke-linejoin="round"/>
</g>
<defs>
<clipPath id="clip0_4944_124424">
<rect width="40" height="40" fill="white" transform="translate(0.664062)"/>
</clipPath>
</defs>
</svg>
