<svg width="37" height="41" viewBox="0 0 37 41" fill="none" xmlns="http://www.w3.org/2000/svg">
<g clip-path="url(#clip0_5536_150533)">
<path d="M18.8157 16.6413C20.2802 18.1058 20.2802 20.4802 18.8157 21.9446C17.3512 23.4091 14.9769 23.4091 13.5124 21.9446C12.0479 20.4802 12.0479 18.1058 13.5124 16.6413C14.9769 15.1769 17.3512 15.1769 18.8157 16.6413Z" stroke="#195AB4" stroke-width="1.5" stroke-linecap="round" stroke-linejoin="round"/>
<path d="M23.1132 30.5005C22.4232 28.6671 20.6716 27.3555 18.5966 27.3555H13.7432C11.6682 27.3555 9.91656 28.6671 9.22656 30.5005" stroke="#195AB4" stroke-width="1.5" stroke-linecap="round" stroke-linejoin="round"/>
<path d="M28.6667 15.5013C24.985 15.5013 22 12.5163 22 8.83464C22 5.15297 24.985 2.16797 28.6667 2.16797C32.35 2.16797 35.3333 5.15297 35.3333 8.83464C35.3333 12.5163 32.35 15.5013 28.6667 15.5013Z" stroke="#195AB4" stroke-width="1.5" stroke-linecap="round" stroke-linejoin="round"/>
<path d="M31.6298 7.35156L27.9265 11.0549L25.7031 8.83323" stroke="#195AB4" stroke-width="1.5" stroke-linecap="round" stroke-linejoin="round"/>
<path d="M22 7.16797H8.66667C4.985 7.16797 2 10.153 2 13.8346V28.8346C2 32.5163 4.985 35.5013 8.66667 35.5013H23.6667C27.3483 35.5013 30.3333 32.5163 30.3333 28.8346V15.5013" stroke="#195AB4" stroke-width="1.5" stroke-linecap="round" stroke-linejoin="round"/>
</g>
<defs>
<clipPath id="clip0_5536_150533">
<rect width="40" height="40" fill="white" transform="translate(-3 0.5)"/>
</clipPath>
</defs>
</svg>
