<svg width="40" height="41" viewBox="0 0 40 41" fill="none" xmlns="http://www.w3.org/2000/svg">
<g clip-path="url(#clip0_5536_150525)">
<path d="M31.6667 18.8333V13.5467C31.6667 12.6633 31.315 11.815 30.69 11.19L25.9767 6.47667C25.3517 5.85167 24.5033 5.5 23.62 5.5H8.33333C6.49167 5.5 5 6.99167 5 8.83333V32.1667C5 34.0083 6.49167 35.5 8.33333 35.5H20" stroke="#195AB4" stroke-width="1.5" stroke-linecap="round" stroke-linejoin="round"/>
<path d="M31.6693 13.8333H25.0026C24.0826 13.8333 23.3359 13.0867 23.3359 12.1667V5.5" stroke="#195AB4" stroke-width="1.5" stroke-linecap="round" stroke-linejoin="round"/>
<path d="M31.8652 25.297C34.0285 27.4604 33.7952 31.1087 31.1685 32.9537C29.4969 34.127 27.1619 34.127 25.4902 32.9537C22.8619 31.1104 22.6302 27.4604 24.7935 25.297C26.7469 23.3437 29.9135 23.3437 31.8652 25.297" stroke="#195AB4" stroke-width="1.5" stroke-linecap="round" stroke-linejoin="round"/>
<path d="M35.0005 35.5005L31.8672 32.3672" stroke="#195AB4" stroke-width="1.5" stroke-linecap="round" stroke-linejoin="round"/>
</g>
<defs>
<clipPath id="clip0_5536_150525">
<rect width="40" height="40" fill="white" transform="translate(0 0.5)"/>
</clipPath>
</defs>
</svg>
