<svg width="32" height="33" viewBox="0 0 32 33" fill="none" xmlns="http://www.w3.org/2000/svg">
<path d="M27.6085 24.182L25.6535 22.227C24.6769 21.2503 23.0935 21.2503 22.1185 22.227L20.5819 23.7636C20.2385 24.107 19.7185 24.222 19.2752 24.027C17.0485 23.052 14.8485 21.5736 12.8869 19.612C10.9335 17.6586 9.4602 15.4686 8.48354 13.2503C8.2802 12.792 8.39854 12.2536 8.75354 11.8986L10.1302 10.522C11.2485 9.40365 11.2485 7.82198 10.2719 6.84531L8.31687 4.89031C7.0152 3.58865 4.9052 3.58865 3.60354 4.89031L2.51687 5.97531C1.28187 7.21031 0.766871 8.99198 1.1002 10.7586C1.92354 15.1136 4.45354 19.882 8.5352 23.9636C12.6169 28.0453 17.3852 30.5753 21.7402 31.3986C23.5069 31.732 25.2885 31.217 26.5235 29.982L27.6085 28.897C28.9102 27.5953 28.9102 25.4853 27.6085 24.182V24.182Z" stroke="#195AB4" stroke-width="1.5" stroke-linecap="round" stroke-linejoin="round"/>
<path d="M17.667 8.15101C19.3853 8.12768 21.112 8.76434 22.4237 10.076" stroke="#195AB4" stroke-width="1.5" stroke-linecap="round" stroke-linejoin="round"/>
<path d="M27.137 5.36279C24.522 2.74779 21.0937 1.43945 17.667 1.43945" stroke="#195AB4" stroke-width="1.5" stroke-linecap="round" stroke-linejoin="round"/>
<path d="M24.3483 14.8328C24.3717 13.1145 23.735 11.3878 22.4233 10.0762" stroke="#195AB4" stroke-width="1.5" stroke-linecap="round" stroke-linejoin="round"/>
<path d="M27.1367 5.36328C29.7517 7.97828 31.0601 11.4066 31.0601 14.8333" stroke="#195AB4" stroke-width="1.5" stroke-linecap="round" stroke-linejoin="round"/>
</svg>
