<svg width="38" height="39" viewBox="0 0 38 39" fill="none" xmlns="http://www.w3.org/2000/svg">
<g clip-path="url(#clip0_5536_150414)">
<path d="M30.1841 20.2986C31.2481 19.2346 32.9739 19.233 34.0379 20.2986C35.1019 21.3626 35.1019 23.0884 34.0364 24.1524L24.8942 33.2867C24.5981 33.5828 24.1959 33.749 23.7764 33.749H20.5859V30.5586C20.5859 30.139 20.7522 29.7368 21.0499 29.4392L30.1841 20.2986V20.2986Z" stroke="#195AB4" stroke-width="1.5" stroke-linecap="round" stroke-linejoin="round"/>
<path d="M11.0859 14.75H23.7526" stroke="#195AB4" stroke-width="1.5" stroke-linecap="round" stroke-linejoin="round"/>
<path d="M11.0859 21.082H19.0026" stroke="#195AB4" stroke-width="1.5" stroke-linecap="round" stroke-linejoin="round"/>
<path d="M11.0859 27.418H15.8359" stroke="#195AB4" stroke-width="1.5" stroke-linecap="round" stroke-linejoin="round"/>
<path d="M32.0118 26.1797L28.1484 22.3164" stroke="#195AB4" stroke-width="1.5" stroke-linecap="round" stroke-linejoin="round"/>
<path d="M30.0833 14.7487V9.9987C30.0833 8.24911 28.6662 6.83203 26.9167 6.83203H7.91667C6.16708 6.83203 4.75 8.24911 4.75 9.9987V30.582C4.75 32.3316 6.16708 33.7487 7.91667 33.7487H14.25" stroke="#195AB4" stroke-width="1.5" stroke-linecap="round" stroke-linejoin="round"/>
<path d="M23.75 5.25V8.41667" stroke="#195AB4" stroke-width="1.5" stroke-linecap="round" stroke-linejoin="round"/>
<path d="M17.4141 5.25V8.41667" stroke="#195AB4" stroke-width="1.5" stroke-linecap="round" stroke-linejoin="round"/>
<path d="M11.0859 5.25V8.41667" stroke="#195AB4" stroke-width="1.5" stroke-linecap="round" stroke-linejoin="round"/>
</g>
<defs>
<clipPath id="clip0_5536_150414">
<rect width="38" height="38" fill="white" transform="translate(0 0.5)"/>
</clipPath>
</defs>
</svg>
